<?xml version="1.0" encoding="UTF-8"?>
<svg id="Layer_1" data-name="Layer 1" xmlns="http://www.w3.org/2000/svg" viewBox="0 0 550.86 550.86">
  <defs>
    <style>
      .cls-1 {
        fill: #fff100;
      }

      .cls-2 {
        fill: #fce300;
      }
    </style>
  </defs>
  <circle class="cls-1" cx="275.43" cy="275.43" r="275.43" transform="translate(-114.09 275.43) rotate(-45)"/>
  <path class="cls-2" d="M419.53,40.35c27.43,42.82,43.33,93.73,43.33,148.36,0,152.12-123.31,275.43-275.43,275.43-52.83,0-102.18-14.89-144.1-40.67,48.95,76.42,134.61,127.07,232.1,127.07,152.12,0,275.43-123.31,275.43-275.43,0-99.29-52.54-186.29-131.33-234.76Z"/>
  <path class="cls-1" d="M37.44,304.49c0-141.23,114.49-255.72,255.72-255.72,82.55,0,155.95,39.13,202.71,99.84C451.7,71.95,368.94,20.34,274.12,20.34c-141.23,0-255.72,114.49-255.72,255.72,0,58.68,19.78,112.73,53.01,155.88-21.61-37.52-33.98-81.04-33.98-127.45Z"/>
  <path d="M162.54,317.1c-7.09-6.89-18.46,.73-14.79,9.91,20.35,50.85,70.06,86.77,128.18,86.77s106.17-34.73,127.14-84.24c3.83-9.03-7.63-16.85-14.67-10.02-40.31,39.08-125.88,94.69-225.86-2.43Z"/>
  <path d="M204.33,235.96c-7.8-19.48-26.4-32.07-47.38-32.07s-38.98,12.22-46.99,31.14c-1.53,3.62-.33,7.71,2.93,9.94,3.26,2.23,7.51,1.88,10.34-.86,15.28-14.82,39.44-26.71,67.77,.8,1.6,1.55,3.65,2.35,5.73,2.35,1.58,0,3.17-.46,4.58-1.41,3.25-2.18,4.5-6.24,3.04-9.88Z"/>
  <path d="M440.96,235.96c-7.8-19.48-26.39-32.07-47.38-32.07s-38.98,12.22-46.99,31.13c-1.54,3.62-.34,7.71,2.92,9.94,3.26,2.24,7.51,1.88,10.34-.86,15.28-14.82,39.44-26.71,67.76,.8,1.6,1.55,3.65,2.35,5.73,2.35,1.58,0,3.17-.46,4.58-1.41,3.25-2.18,4.5-6.24,3.04-9.88Z"/>
</svg>